# Created by Open3D 
# object name: recon_cluster_boundary_0
# number of vertices: 75
# number of triangles: 150
v 0.194773 0.989668 0.615432
vn -0.589448 0.543504 -0.597624
v 0.202651 0.998862 2.6066
vn -0.15802 0.878242 0.451355
v 0.818826 -0.998662 2.00356
vn -0.00330615 -0.999962 0.00812029
v 0.195035 -0.989508 2.60481
vn -0.557664 -0.554223 0.617938
v 2.19989 -0.997451 0.60579
vn 0.555356 -0.574301 -0.601463
v 0.201873 -0.993306 0.607073
vn -0.537584 -0.453985 -0.710564
v 1.45516 0.999692 1.98084
vn 0.0022607 0.999994 0.00249337
v 2.19365 0.377229 0.606084
vn 0.195863 0.00376888 -0.980624
v 2.19738 0.999186 0.620182
vn 0.437652 0.872578 -0.216952
v 0.987917 0.991284 0.607253
vn -0.00186259 0.32231 -0.946632
v 0.85496 -0.0540312 0.606132
vn -0.00346186 0.00153815 -0.999993
v 0.210763 -0.999462 1.35991
vn -0.360163 -0.932889 0.000257473
v 1.26304 0.996156 2.60672
vn 0.000807457 0.637591 0.770375
v 2.20048 0.993106 2.60763
vn 0.559742 0.679243 0.474677
v 2.19846 -0.995757 2.60392
vn 0.75842 -0.492162 0.427289
v 1.91079 -0.603245 1.41398
vn 0.00972558 0.837682 0.546071
v 2.19391 -0.6002 1.79095
vn 0.68187 0.708715 -0.181045
v 1.12426 -1.00277 0.606059
vn -0.000995185 -0.306942 -0.951728
v 0.363106 -0.192254 1.01577
vn 0.00727316 0.486221 0.873805
v 0.451518 0.181554 1.01072
vn -0.00786878 -0.468839 0.883248
v 0.702231 0.999452 1.55847
vn -0.00821539 0.999965 -0.00136924
v 0.197326 -0.195623 2.22818
vn -0.981881 0.0747526 -0.174129
v 0.203262 -0.614913 1.80396
vn -0.905729 0.360819 -0.222408
v 0.74824 -0.173156 1.0124
vn 0.0142929 0.418478 0.908114
v 2.19233 -0.173024 2.20668
vn 0.835782 0.195562 -0.513054
v 2.18498 0.583275 1.86934
vn 0.893142 -0.406111 -0.193317
v 1.59733 -0.598838 1.3907
vn -0.0118079 0.948214 0.317414
v 1.30684 -0.999974 1.20829
vn -0.00181381 -0.999998 -0.000925133
v 1.58896 0.600263 1.40934
vn -0.0246046 -0.928555 0.37038
v 1.52316 -0.190984 2.20838
vn -0.0109783 0.412993 -0.910668
v 1.47902 -0.600542 1.79879
vn -0.00546003 0.897928 -0.440109
v 1.04171 -0.599224 1.80556
vn -0.00721809 0.902794 -0.430013
v 2.191 -1.00232 1.46487
vn 0.344987 -0.938607 -0.000377763
v 1.99653 -0.214785 1.0104
vn 0.0205838 0.297701 0.954437
v 2.02755 0.208928 2.20773
vn -0.193221 -0.509028 -0.838783
v 1.37634 -0.988904 2.60883
vn -0.000420916 -0.441289 0.897365
v 1.63969 -1.00171 2.16063
vn -0.00239575 -0.999971 0.00721481
v 0.193491 0.987832 2.24847
vn -0.856879 0.515412 -0.0104181
v 0.199002 0.0787369 0.937762
vn -0.974184 -0.0944711 0.205038
v 2.19582 0.215288 1.01146
vn 0.839664 -0.213725 0.499285
v 1.22568 0.999286 1.09691
vn -0.00281365 0.999978 -0.00605212
v 0.229791 0.218635 2.21183
vn -0.427057 -0.47941 -0.766674
v 0.503784 -0.598106 1.41253
vn -0.0384905 0.839304 0.542299
v 0.61549 -0.599874 1.78562
vn -0.0158716 0.939602 -0.341899
v 2.1981 -0.604636 1.4135
vn 0.985213 0.153513 0.0760866
v 1.14057 -0.196444 2.21079
vn -0.0189929 0.526117 -0.8502
v 0.836796 -0.328827 2.60859
vn -0.00179723 -0.00177132 0.999997
v 1.59298 0.0710591 2.60921
vn 0.000844357 0.000671291 0.999999
v 1.1783 0.199144 2.2081
vn -0.00408768 -0.43972 -0.898126
v 1.8064 -0.192109 2.20166
vn -0.0145636 0.458649 -0.888498
v 0.19596 -0.619895 1.372
vn -0.907435 0.370473 0.19827
v 0.415997 0.598404 1.40825
vn 0.110634 -0.875018 0.471278
v 0.195356 0.663314 1.71013
vn -0.93191 -0.359673 -0.0466856
v 1.75888 0.190575 2.20581
vn 0.00196695 -0.394416 -0.91893
v 0.752148 0.597633 1.80934
vn -0.0102822 -0.878906 -0.476884
v 0.696157 0.201218 2.21153
vn -0.0117871 -0.389509 -0.920947
v 0.202913 0.369647 2.60913
vn -0.318236 0.00105103 0.948011
v 1.51915 0.18435 2.20812
vn -0.0100628 -0.442551 -0.896687
v 1.45399 -0.236788 1.00783
vn 0.019192 0.4986 0.86662
v 1.63931 0.211908 1.01103
vn -0.00996045 -0.490045 0.871641
v 2.19283 0.601285 1.42056
vn 0.85458 -0.449161 0.260666
v 1.11271 -0.603695 1.42165
vn 0.0240001 0.876772 0.480306
v 0.738792 -0.22574 2.21046
vn -0.00675394 0.452464 -0.891757
v 2.19975 0.0611043 2.60674
vn 0.590762 -0.00166117 0.806844
v 0.470455 -0.225372 2.21189
vn -0.0176644 0.445141 -0.895286
v 2.19365 -0.223383 1.00633
vn 0.962294 0.160686 0.219478
v 1.03117 0.191383 1.01373
vn 0.0261924 -0.503037 0.863868
v 1.54038 0.599793 1.81791
vn -0.0123791 -0.864882 -0.501823
v 0.986326 0.599288 1.39555
vn 0.0119193 -0.880223 0.474411
v 1.34209 0.598483 1.37959
vn 0.0146843 -0.903581 0.428167
v 1.91722 0.598632 1.80177
vn 0.021334 -0.856389 -0.515891
v 1.68539 -0.196901 1.01068
vn -0.0238687 0.440756 0.89731
v 1.38334 0.232607 1.01034
vn -0.000506717 -0.318038 0.948078
v 1.17673 0.600416 1.82226
vn 0.00565334 -0.930052 -0.367384
v 1.785 -0.600889 1.79682
vn -0.0141614 0.70363 -0.710426
f 22//22 23//23 4//4
f 10//10 9//9 8//8
f 6//6 1//1 11//11
f 24//24 20//20 19//19
f 19//19 43//43 24//24
f 43//43 44//44 62//62
f 39//39 1//1 6//6
f 20//20 24//24 67//67
f 58//58 30//30 49//49
f 67//67 70//70 69//69
f 25//25 35//35 26//26
f 24//24 43//43 62//62
f 54//54 58//58 68//68
f 17//17 45//45 16//16
f 62//62 32//32 27//27
f 9//9 40//40 8//8
f 22//22 65//65 23//23
f 51//51 44//44 43//43
f 68//68 71//71 54//54
f 36//36 4//4 3//3
f 43//43 19//19 51//51
f 55//55 69//69 74//74
f 38//38 42//42 22//22
f 22//22 57//57 38//38
f 8//8 5//5 18//18
f 73//73 67//67 24//24
f 52//52 53//53 39//39
f 20//20 52//52 39//39
f 11//11 1//1 10//10
f 21//21 41//41 1//1
f 44//44 23//23 65//65
f 6//6 18//18 28//28
f 31//31 17//17 27//27
f 60//60 34//34 40//40
f 60//60 61//61 29//29
f 46//46 31//31 32//32
f 27//27 32//32 31//31
f 32//32 44//44 63//63
f 63//63 44//44 65//65
f 14//14 64//64 26//26
f 64//64 25//25 26//26
f 29//29 71//71 68//68
f 26//26 29//29 61//61
f 14//14 7//7 13//13
f 58//58 54//54 30//30
f 50//50 75//75 30//30
f 31//31 30//30 75//75
f 25//25 15//15 17//17
f 60//60 40//40 61//61
f 38//38 53//53 42//42
f 22//22 42//42 65//65
f 56//56 65//65 42//42
f 38//38 1//1 53//53
f 49//49 56//56 55//55
f 1//1 39//39 53//53
f 13//13 7//7 21//21
f 19//19 20//20 39//39
f 70//70 67//67 73//73
f 59//59 73//73 24//24
f 23//23 12//12 4//4
f 4//4 57//57 22//22
f 12//12 23//23 51//51
f 9//9 10//10 41//41
f 49//49 74//74 68//68
f 70//70 74//74 69//69
f 49//49 55//55 74//74
f 59//59 62//62 27//27
f 27//27 72//72 59//59
f 16//16 34//34 72//72
f 28//28 37//37 3//3
f 16//16 72//72 27//27
f 7//7 9//9 41//41
f 63//63 46//46 32//32
f 54//54 71//71 35//35
f 44//44 32//32 62//62
f 16//16 27//27 17//17
f 30//30 31//31 46//46
f 40//40 34//34 66//66
f 33//33 45//45 15//15
f 65//65 56//56 63//63
f 49//49 63//63 56//56
f 46//46 49//49 30//30
f 2//2 57//57 13//13
f 8//8 66//66 5//5
f 66//66 8//8 40//40
f 53//53 52//52 55//55
f 38//38 21//21 1//1
f 11//11 8//8 18//18
f 59//59 72//72 73//73
f 41//41 10//10 1//1
f 3//3 4//4 12//12
f 23//23 44//44 51//51
f 58//58 49//49 68//68
f 18//18 6//6 11//11
f 29//29 73//73 60//60
f 9//9 61//61 40//40
f 14//14 9//9 7//7
f 70//70 29//29 68//68
f 71//71 29//29 26//26
f 14//14 48//48 64//64
f 71//71 26//26 35//35
f 66//66 34//34 16//16
f 16//16 45//45 66//66
f 15//15 36//36 37//37
f 36//36 15//15 64//64
f 13//13 57//57 48//48
f 57//57 2//2 38//38
f 5//5 28//28 18//18
f 2//2 13//13 21//21
f 42//42 53//53 55//55
f 55//55 56//56 42//42
f 33//33 28//28 5//5
f 10//10 8//8 11//11
f 72//72 60//60 73//73
f 69//69 52//52 20//20
f 6//6 12//12 51//51
f 6//6 51//51 39//39
f 19//19 39//39 51//51
f 59//59 24//24 62//62
f 28//28 3//3 12//12
f 6//6 28//28 12//12
f 72//72 34//34 60//60
f 9//9 14//14 61//61
f 48//48 36//36 64//64
f 50//50 25//25 75//75
f 25//25 17//17 75//75
f 21//21 7//7 41//41
f 68//68 74//74 70//70
f 29//29 70//70 73//73
f 4//4 36//36 47//47
f 15//15 25//25 64//64
f 4//4 47//47 57//57
f 49//49 46//46 63//63
f 47//47 48//48 57//57
f 48//48 47//47 36//36
f 48//48 14//14 13//13
f 54//54 25//25 50//50
f 25//25 54//54 35//35
f 33//33 5//5 45//45
f 69//69 20//20 67//67
f 54//54 50//50 30//30
f 33//33 37//37 28//28
f 61//61 14//14 26//26
f 15//15 37//37 33//33
f 45//45 5//5 66//66
f 37//37 36//36 3//3
f 69//69 55//55 52//52
f 2//2 21//21 38//38
f 75//75 17//17 31//31
f 17//17 15//15 45//45
